<?xml version="1.0" encoding="utf-8"?>
<!-- Generator: Adobe Illustrator 15.1.0, SVG Export Plug-In . SVG Version: 6.00 Build 0)  -->
<!DOCTYPE svg PUBLIC "-//W3C//DTD SVG 1.1//EN" "http://www.w3.org/Graphics/SVG/1.1/DTD/svg11.dtd">
<svg version="1.1" id="Layer_1" xmlns="http://www.w3.org/2000/svg" xmlns:xlink="http://www.w3.org/1999/xlink" x="0px" y="0px"
	 width="269.599px" height="91.055px" viewBox="0 0 269.599 91.055" enable-background="new 0 0 269.599 91.055"
	 xml:space="preserve">
<rect fill="#58595B" width="128.734" height="25.767"/>
<g>
	<path fill="#3FA3DC" d="M21.471,64.866l5.643-8.303c2.447,1.861,6.387,3.885,10.111,3.885c1.863,0,4.418-0.373,4.418-2.182
		c0-1.811-1.49-2.236-3.301-2.715l-6.705-1.863c-5.217-1.438-8.889-5.109-8.889-10.644c0-7.025,5.908-13.093,15.436-13.093
		c7.025,0,10.432,1.172,14.742,3.727l-6.279,7.824c-2.023-1.598-5.59-2.609-7.877-2.609c-2.449,0-4.258,0.533-4.258,2.289
		c0,1.757,2.021,1.968,4.736,2.714l5.482,1.543c6.279,1.757,9.525,5.537,9.525,10.591c0,9.527-8.674,13.094-16.02,13.094
		C31.903,69.124,26.686,68.485,21.471,64.866z"/>
	<path fill="#3FA3DC" d="M66.61,39.744H56.018v-9.207h33.213v9.207H78.639v28.741H66.61V39.744z"/>
	<path fill="#3FA3DC" d="M99.295,30.484h13.891l12.562,38.001h-11.976l-1.809-6.068H99.348l-1.809,6.068h-11.07L99.295,30.484z
		 M109.354,53.635l-3.619-12.294h-0.158l-3.621,12.294H109.354z"/>
	<path fill="#3FA3DC" d="M128.734,30.537h18.203c10.111,0,14.264,5.748,14.264,12.082c0,4.683-2.129,9.101-6.812,11.335
		l7.982,14.531h-13.092l-6.121-12.561h-2.502v12.561h-11.922V30.537z M145.339,47.78c2.768,0,4.26-1.968,4.26-4.15
		c0-2.076-1.332-4.152-4.207-4.152h-4.736v8.302H145.339z"/>
	<path fill="#3FA3DC" d="M174.83,39.744h-10.592v-9.207h33.213v9.207h-10.592v28.741H174.83V39.744z"/>
	<path fill="#3FA3DC" d="M237.078,30.537h18.896c9.473,0,13.625,6.174,13.625,12.507c0,6.599-3.779,13.412-13.625,13.412h-6.973
		v12.029h-11.924V30.537z M253.738,47.78c2.768,0,4.258-2.021,4.258-4.15c0-2.076-1.33-4.152-4.205-4.152h-4.789v8.302H253.738z"/>
	<path fill="#3FA3DC" d="M223.689,56.321c0,3.531-2.863,6.393-6.393,6.393l0,0c-3.529,0-6.391-2.861-6.391-6.393V22.703
		c0-3.531,2.861-6.393,6.391-6.393l0,0c3.529,0,6.393,2.861,6.393,6.393V56.321z"/>
	<polygon fill="#3FA3DC" points="203.925,25.767 217.296,12.394 230.669,25.767 	"/>
</g>
<g>
	<path fill="#808285" d="M24.542,86.926l1.775-0.648c0.673,1.92,2.4,3.049,4.729,3.049c2.257,0,4.081-1.104,4.081-3.072
		c0-1.824-1.129-2.568-2.641-3.049l-3.24-0.912c-2.4-0.672-3.792-1.92-3.792-4.367c0-2.834,2.399-4.609,5.496-4.609
		c2.641,0,4.849,0.984,5.736,3.24l-1.68,0.672c-0.744-1.465-2.137-2.279-4.081-2.279c-1.752,0-3.552,0.887-3.552,2.807
		c0,1.346,0.816,2.281,2.832,2.881l3.265,0.912c2.016,0.553,3.552,1.801,3.552,4.514c0,2.928-2.424,4.967-6.072,4.967
		C27.831,91.03,25.334,89.614,24.542,86.926z"/>
	<path fill="#808285" d="M44.318,85.319v-5.93c0-3.648,2.76-6.049,6.505-6.049c3.408,0,6.096,1.969,6.096,5.137v0.84h-1.848v-0.6
		c0-2.305-1.801-3.648-4.32-3.648c-2.496,0-4.513,1.584-4.513,4.297v5.736c0,2.592,1.944,4.225,4.633,4.225
		c2.496,0,4.2-1.369,4.2-3.672v-0.361h1.848v0.625c0,3.24-2.64,5.137-6.048,5.137C47.222,91.055,44.318,89.063,44.318,85.319z"/>
	<path fill="#808285" d="M64.862,73.629h1.943v7.416h8.665v-7.416h1.944v17.113H75.47V82.75h-8.665v7.992h-1.943V73.629z"/>
	<path fill="#808285" d="M85.598,85.319v-5.834c0-3.889,2.977-6.191,6.505-6.191c3.647,0,6.528,2.184,6.528,5.928v5.641
		c0,3.865-2.952,6.193-6.48,6.193C88.575,91.055,85.598,89.063,85.598,85.319z M96.711,85.006v-5.857
		c0-2.592-1.921-4.127-4.681-4.127c-2.496,0-4.513,1.607-4.513,4.439v5.641c0,2.615,1.944,4.225,4.633,4.225
		C94.623,89.327,96.711,87.815,96.711,85.006z"/>
	<path fill="#808285" d="M106.406,85.319v-5.834c0-3.889,2.977-6.191,6.505-6.191c3.647,0,6.528,2.184,6.528,5.928v5.641
		c0,3.865-2.952,6.193-6.48,6.193C109.382,91.055,106.406,89.063,106.406,85.319z M117.519,85.006v-5.857
		c0-2.592-1.921-4.127-4.681-4.127c-2.496,0-4.513,1.607-4.513,4.439v5.641c0,2.615,1.944,4.225,4.633,4.225
		C115.43,89.327,117.519,87.815,117.519,85.006z"/>
	<path fill="#808285" d="M127.622,73.604h1.943v15.41h8.833v1.729h-10.776V73.604z"/>
</g>
<g>
	<path fill="#FFFFFF" d="M25.299,4.871h6.381c2.887,0,4.75,1.397,4.75,4.122c0,1.746-1.024,3.26-2.887,3.795v0.023
		c2.211,0.396,3.375,2.095,3.375,4.051c0,3.12-2.468,4.634-5.053,4.634h-6.566V4.871z M31.168,12.183
		c1.862,0,3.422-0.931,3.422-2.911c0-1.979-1.42-2.794-3.307-2.794h-4.098v5.705H31.168z M31.47,19.89
		c2.026,0,3.563-1.001,3.563-3.121c0-2.095-1.537-3.003-3.586-3.003h-4.262v6.124H31.47z"/>
	<path fill="#FFFFFF" d="M39.485,16.234v-5.658c0-3.772,2.887-6.008,6.311-6.008c3.539,0,6.333,2.119,6.333,5.751v5.472
		c0,3.749-2.864,6.007-6.287,6.007C42.372,21.799,39.485,19.867,39.485,16.234z M50.266,15.932V10.25
		c0-2.515-1.863-4.005-4.541-4.005c-2.422,0-4.377,1.56-4.377,4.308v5.472c0,2.538,1.885,4.098,4.493,4.098
		C48.24,20.123,50.266,18.656,50.266,15.932z"/>
	<path fill="#FFFFFF" d="M54.368,17.794l1.723-0.629c0.652,1.863,2.329,2.957,4.588,2.957c2.188,0,3.959-1.071,3.959-2.98
		c0-1.77-1.096-2.491-2.562-2.957L58.932,13.3c-2.329-0.652-3.68-1.863-3.68-4.238c0-2.748,2.328-4.471,5.332-4.471
		c2.562,0,4.704,0.955,5.565,3.144l-1.63,0.652c-0.722-1.42-2.072-2.212-3.959-2.212c-1.699,0-3.445,0.861-3.445,2.724
		c0,1.304,0.791,2.212,2.748,2.794l3.166,0.885c1.956,0.535,3.446,1.746,3.446,4.377c0,2.841-2.353,4.82-5.892,4.82
		C57.558,21.776,55.136,20.402,54.368,17.794z"/>
	<path fill="#FFFFFF" d="M73.069,6.501h-5.401V4.895h12.644v1.606h-5.379v14.996h-1.863V6.501z"/>
	<path fill="#FFFFFF" d="M81.992,16.234v-5.658c0-3.772,2.888-6.008,6.31-6.008c3.539,0,6.334,2.119,6.334,5.751v5.472
		c0,3.749-2.864,6.007-6.287,6.007C84.879,21.799,81.992,19.867,81.992,16.234z M92.772,15.932V10.25
		c0-2.515-1.862-4.005-4.54-4.005c-2.422,0-4.378,1.56-4.378,4.308v5.472c0,2.538,1.887,4.098,4.494,4.098
		C90.747,20.123,92.772,18.656,92.772,15.932z"/>
	<path fill="#FFFFFF" d="M97.922,4.871h1.887l8.568,13.366h0.047V4.871h1.793v16.625h-1.84L99.739,7.945h-0.047v13.552h-1.77V4.871z
		"/>
</g>
<polygon fill="#808285" points="0,25.767 15.333,25.767 15.333,44.768 "/>
</svg>
